{
  "accessors": [
    {
      "bufferView": 2,
      "componentType": 5126,
      "count": 6555,
      "max": [
        1.1273360252380371,
        1.1258050203323364,
        6.4042658805847168
      ],
      "min": [
        -1.1273369789123535,
        -1.1258080005645752,
        2.5850720405578613
      ],
      "type": "VEC3"
    },
    {
      "bufferView": 2,
      "byteOffset": 78660,
      "componentType": 5126,
      "count": 6555,
      "max": [
        0.99792546033859253,
        0.99963086843490601,
        0.993996262550354
      ],
      "min": [
        -0.99960589408874512,
        -0.99963122606277466,
        -1
      ],
      "type": "VEC3"
    },
    {
      "bufferView": 3,
      "componentType": 5126,
      "count": 6555,
      "max": [
        0.99999618530273438,
        0.9999992847442627,
        0.99999523162841797,
        1
      ],
      "min": [
        -0.99999946355819702,
        -0.99999302625656128,
        -0.99998515844345093,
        -1
      ],
      "type": "VEC4"
    },
    {
      "bufferView": 0,
      "componentType": 5125,
      "count": 6846,
      "max": [
        6554
      ],
      "min": [
        0
      ],
      "type": "SCALAR"
    },
    {
      "bufferView": 2,
      "byteOffset": 157320,
      "componentType": 5126,
      "count": 44125,
      "max": [
        2.6917359828948975,
        6.0472440719604492,
        11.057087898254395
      ],
      "min": [
        -2.6917359828948975,
        -2.6992840766906738,
        0.23670600354671478
      ],
      "type": "VEC3"
    },
    {
      "bufferView": 2,
      "byteOffset": 686820,
      "componentType": 5126,
      "count": 44125,
      "max": [
        1,
        1,
        1
      ],
      "min": [
        -1,
        -1,
        -1
      ],
      "type": "VEC3"
    },
    {
      "bufferView": 0,
      "byteOffset": 27384,
      "componentType": 5125,
      "count": 113748,
      "max": [
        44124
      ],
      "min": [
        0
      ],
      "type": "SCALAR"
    },
    {
      "bufferView": 2,
      "byteOffset": 1216320,
      "componentType": 5126,
      "count": 65532,
      "max": [
        2.0236220359802246,
        6.0472450256347656,
        12.58506965637207
      ],
      "min": [
        -2.0236220359802246,
        -2.023622989654541,
        0.35432898998260498
      ],
      "type": "VEC3"
    },
    {
      "bufferView": 2,
      "byteOffset": 2002704,
      "componentType": 5126,
      "count": 65532,
      "max": [
        1,
        1,
        1
      ],
      "min": [
        -1,
        -1,
        -1
      ],
      "type": "VEC3"
    },
    {
      "bufferView": 3,
      "byteOffset": 104880,
      "componentType": 5126,
      "count": 65532,
      "max": [
        1,
        1,
        1,
        1
      ],
      "min": [
        -1,
        -1,
        -1,
        -1
      ],
      "type": "VEC4"
    },
    {
      "bufferView": 0,
      "byteOffset": 482376,
      "componentType": 5125,
      "count": 74322,
      "max": [
        65531
      ],
      "min": [
        0
      ],
      "type": "SCALAR"
    },
    {
      "bufferView": 2,
      "byteOffset": 2789088,
      "componentType": 5126,
      "count": 5212,
      "max": [
        1.6052680015563965,
        1.5927870273590088,
        6.8622050285339355
      ],
      "min": [
        -1.5809060335159302,
        1.241582989692688,
        6.7047238349914551
      ],
      "type": "VEC3"
    },
    {
      "bufferView": 2,
      "byteOffset": 2851632,
      "componentType": 5126,
      "count": 5212,
      "max": [
        1,
        1,
        1
      ],
      "min": [
        -1,
        -1,
        -1
      ],
      "type": "VEC3"
    },
    {
      "bufferView": 3,
      "byteOffset": 1153392,
      "componentType": 5126,
      "count": 5212,
      "max": [
        0.99996930360794067,
        0.99999910593032837,
        1,
        1
      ],
      "min": [
        -0.99963134527206421,
        -0.99991852045059204,
        -0.99999898672103882,
        -1
      ],
      "type": "VEC4"
    },
    {
      "bufferView": 0,
      "byteOffset": 779664,
      "componentType": 5125,
      "count": 5268,
      "max": [
        5211
      ],
      "min": [
        0
      ],
      "type": "SCALAR"
    },
    {
      "bufferView": 2,
      "byteOffset": 2914176,
      "componentType": 5126,
      "count": 566,
      "max": [
        1.5775740146636963,
        1.5775740146636963,
        6.8622050285339355
      ],
      "min": [
        -1.5775729417800903,
        -1.5775740146636963,
        0.51526898145675659
      ],
      "type": "VEC3"
    },
    {
      "bufferView": 2,
      "byteOffset": 2920968,
      "componentType": 5126,
      "count": 566,
      "max": [
        0.99879145622253418,
        0.99863922595977783,
        0.99764275550842285
      ],
      "min": [
        -0.99879062175750732,
        -0.99863934516906738,
        -0.99334847927093506
      ],
      "type": "VEC3"
    },
    {
      "bufferView": 0,
      "byteOffset": 800736,
      "componentType": 5125,
      "count": 3396,
      "max": [
        565
      ],
      "min": [
        0
      ],
      "type": "SCALAR"
    },
    {
      "bufferView": 2,
      "byteOffset": 2927760,
      "componentType": 5126,
      "count": 27727,
      "max": [
        3.5312409400939941,
        6.1023621559143066,
        12.99212646484375
      ],
      "min": [
        -3.5312409400939941,
        -3.5411429405212402,
        0
      ],
      "type": "VEC3"
    },
    {
      "bufferView": 2,
      "byteOffset": 3260484,
      "componentType": 5126,
      "count": 27727,
      "max": [
        1,
        1,
        1
      ],
      "min": [
        -1,
        -1,
        -1
      ],
      "type": "VEC3"
    },
    {
      "bufferView": 1,
      "componentType": 5126,
      "count": 27727,
      "max": [
        0,
        0
      ],
      "min": [
        0,
        0
      ],
      "type": "VEC2"
    },
    {
      "bufferView": 0,
      "byteOffset": 814320,
      "componentType": 5125,
      "count": 86436,
      "max": [
        27726
      ],
      "min": [
        0
      ],
      "type": "SCALAR"
    }
  ],
  "asset": {
    "extras": {
      "author": "Francesco Coldesina (https://sketchfab.com/topfrank2013)",
      "license": "CC-BY-4.0 (http://creativecommons.org/licenses/by/4.0/)",
      "source": "https://sketchfab.com/models/791315a3a435406291ac606dd515b311",
      "title": "External Classic Light"
    },
    "generator": "Sketchfab-3.19.1",
    "version": "2.0"
  },
  "bufferViews": [
    {
      "buffer": 0,
      "byteLength": 1160064,
      "byteOffset": 0,
      "name": "floatBufferViews",
      "target": 34963
    },
    {
      "buffer": 0,
      "byteLength": 221816,
      "byteOffset": 1160064,
      "byteStride": 8,
      "name": "floatBufferViews",
      "target": 34962
    },
    {
      "buffer": 0,
      "byteLength": 3593208,
      "byteOffset": 1381880,
      "byteStride": 12,
      "name": "floatBufferViews",
      "target": 34962
    },
    {
      "buffer": 0,
      "byteLength": 1236784,
      "byteOffset": 4975088,
      "byteStride": 16,
      "name": "floatBufferViews",
      "target": 34962
    }
  ],
  "buffers": [
    {
      "byteLength": 6211872,
      "uri": "scene.bin"
    }
  ],
  "images": [
    {
      "uri": "textures/Lamp1_normal.png"
    },
    {
      "uri": "textures/Lamp1_metallicRoughness.png"
    },
    {
      "uri": "textures/Lamp1_baseColor.jpeg"
    }
  ],
  "materials": [
    {
      "doubleSided": true,
      "emissiveFactor": [
        1,
        1,
        1
      ],
      "name": "Bulb",
      "pbrMetallicRoughness": {
        "baseColorFactor": [
          1,
          1,
          1,
          1
        ],
        "metallicFactor": 0,
        "roughnessFactor": 1
      }
    },
    {
      "doubleSided": true,
      "emissiveFactor": [
        0,
        0,
        0
      ],
      "name": "Chromium",
      "pbrMetallicRoughness": {
        "baseColorFactor": [
          0.34283536584000002,
          0.34283536584000002,
          0.34283536584000002,
          1
        ],
        "metallicFactor": 1,
        "roughnessFactor": 0.30316310980000005
      }
    },
    {
      "alphaMode": "BLEND",
      "doubleSided": true,
      "emissiveFactor": [
        1,
        1,
        1
      ],
      "name": "Glass_Simple",
      "pbrMetallicRoughness": {
        "baseColorFactor": [
          0.110099,
          0.114013,
          0.16068299999999999,
          0.16901676830000001
        ],
        "metallicFactor": 0.78830030490000003,
        "roughnessFactor": 0.37633384150000004
      }
    },
    {
      "doubleSided": true,
      "emissiveFactor": [
        0,
        0,
        0
      ],
      "name": "Lamp1",
      "normalTexture": {
        "index": 0,
        "scale": 1,
        "texCoord": 0
      },
      "pbrMetallicRoughness": {
        "baseColorFactor": [
          1,
          1,
          1,
          1
        ],
        "baseColorTexture": {
          "index": 2,
          "texCoord": 0
        },
        "metallicFactor": 0.77610518289999997,
        "metallicRoughnessTexture": {
          "index": 1,
          "texCoord": 0
        },
        "roughnessFactor": 1
      }
    }
  ],
  "meshes": [
    {
      "primitives": [
        {
          "attributes": {
            "NORMAL": 1,
            "POSITION": 0,
            "TANGENT": 2
          },
          "indices": 3,
          "material": 0,
          "mode": 4
        }
      ]
    },
    {
      "primitives": [
        {
          "attributes": {
            "NORMAL": 5,
            "POSITION": 4
          },
          "indices": 6,
          "material": 1,
          "mode": 4
        }
      ]
    },
    {
      "primitives": [
        {
          "attributes": {
            "NORMAL": 8,
            "POSITION": 7,
            "TANGENT": 9
          },
          "indices": 10,
          "material": 1,
          "mode": 4
        }
      ]
    },
    {
      "primitives": [
        {
          "attributes": {
            "NORMAL": 12,
            "POSITION": 11,
            "TANGENT": 13
          },
          "indices": 14,
          "material": 1,
          "mode": 4
        }
      ]
    },
    {
      "primitives": [
        {
          "attributes": {
            "NORMAL": 16,
            "POSITION": 15
          },
          "indices": 17,
          "material": 2,
          "mode": 4
        }
      ]
    },
    {
      "primitives": [
        {
          "attributes": {
            "NORMAL": 19,
            "POSITION": 18,
            "TEXCOORD_0": 20
          },
          "indices": 21,
          "material": 3,
          "mode": 4
        }
      ]
    }
  ],
  "nodes": [
    {
      "children": [
        1
      ],
      "name": "RootNode (gltf orientation matrix)",
      "rotation": [
        -0.70710678118654746,
        -0,
        -0,
        0.70710678118654757
      ]
    },
    {
      "children": [
        2
      ],
      "name": "RootNode (model correction matrix)"
    },
    {
      "children": [
        3,
        4,
        5,
        6,
        7,
        8
      ],
      "name": "Lampada Externa B1.obj.cleaner.materialmerger.gles"
    },
    {
      "mesh": 0,
      "name": ""
    },
    {
      "mesh": 1,
      "name": ""
    },
    {
      "mesh": 2,
      "name": ""
    },
    {
      "mesh": 3,
      "name": ""
    },
    {
      "mesh": 4,
      "name": ""
    },
    {
      "mesh": 5,
      "name": ""
    }
  ],
  "samplers": [
    {
      "magFilter": 9729,
      "minFilter": 9987,
      "wrapS": 10497,
      "wrapT": 10497
    }
  ],
  "scene": 0,
  "scenes": [
    {
      "name": "OSG_Scene",
      "nodes": [
        0
      ]
    }
  ],
  "textures": [
    {
      "sampler": 0,
      "source": 0
    },
    {
      "sampler": 0,
      "source": 1
    },
    {
      "sampler": 0,
      "source": 2
    }
  ]
}

